<svg width="85" height="40" viewBox="15 0 85 40" fill="none" xmlns="http://www.w3.org/2000/svg">
<path d="M32.8947 40.2205H32.4369V4.33653L15.2398 0.620516V36.1872H14.7891V0L32.8947 3.91346V40.2205Z" fill="#ED1C24"/>
<path fill-rule="evenodd" clip-rule="evenodd" d="M17.5705 36.7707V28.5674L15.8311 28.1872V36.3774L17.5705 36.7707ZM15.8311 27.5738L17.5705 27.9547V12.8746L15.8311 12.5152V27.5738ZM15.8311 12.0526L17.5705 12.4123V2.04259L15.8311 1.68506V12.0526ZM18.0212 36.8726L18.2325 36.9203L18.4437 36.9767L27.7113 39.0903V30.7839L18.0212 28.6659V36.8726ZM28.1691 39.1948L31.8311 40.0299L31.8125 31.6804L28.1691 30.884V39.1948ZM31.8111 31.0735L31.8099 30.5389V30.0101L31.7813 15.8112L28.1691 15.0648V30.2759L31.8111 31.0735ZM31.7804 15.3512L31.7747 12.5793L31.7677 12.0575L31.7536 4.9639L28.8311 4.36455L28.4296 4.27993L28.1691 4.22621V14.6043L31.7804 15.3512ZM27.7113 4.13183L18.6832 2.27032L18.2325 2.17865L18.0212 2.13523V12.5055L27.7113 14.5096V4.13183ZM18.0212 12.9677L27.7113 14.9702V30.1757L18.0212 28.0535V12.9677Z" fill="#ED1C24"/>
<path d="M30.8023 22.2749H29.9502V25.2505H30.8023V22.2749Z" fill="white"/>
<path opacity="0.1" d="M18.4399 54.9998L32.3944 40.2313L14.9513 36.6665L0 49.9073L18.4399 54.9998Z" fill="url(#paint0_linear_464:6852)"/>
<path d="M67.6902 16.5567H54.8311V8.29263H56.0634V15.4356H60.648V8.29263H61.8804V15.4356H66.4578V8.29263H67.6902V16.5567ZM77.0916 16.5567H69.2043V8.29263H77.0634V9.42788H70.4085V11.8253H76.8311V12.9535H70.4085V15.4567H77.0634L77.0916 16.5567ZM88.6339 16.5567H87.4015V9.37147L80.3592 16.5567H78.493V8.28557H79.7325V15.5272L86.7747 8.28557H88.5705L88.6339 16.5567ZM85.3522 8.18686H81.662V7.07275H85.3522V8.18686ZM99.9578 16.5567H98.7184V9.42788H92.7747V10.9792C92.7747 14.7022 92.2888 16.5708 91.324 16.5708H90.1268V15.4497H90.6127C91.2275 15.4497 91.5353 14.2369 91.5353 11.8112V8.28557H99.986L99.9578 16.5567Z" fill="#231F20"/>
<path d="M64.3874 30.6871H63.155V29.1711H55.486V30.6871H54.1973V28.0499H54.9015C55.1086 27.3394 55.257 26.613 55.3452 25.8781C55.4489 25.1468 55.5054 24.4096 55.5142 23.6711V20.9211H63.824V28.0499H64.3874V30.6871ZM62.5705 28.0499V22.0422H56.7254V23.6711C56.7399 25.1466 56.5671 26.618 56.2114 28.0499H62.5705ZM75.5212 22.4089C75.7747 24.1602 75.7747 25.939 75.5212 27.6903C75.2888 28.4589 74.5916 28.9525 73.4085 29.164C72.474 29.2751 71.5325 29.3175 70.5916 29.2909C69.6626 29.3146 68.733 29.2722 67.8099 29.164C66.6268 28.9454 65.9226 28.4589 65.6973 27.6973C65.5303 26.8288 65.4665 25.9437 65.5071 25.0602C65.4678 24.1744 65.5316 23.287 65.6973 22.4159C65.9297 21.6403 66.6339 21.1467 67.8099 20.9352C69.6674 20.7612 71.5367 20.7612 73.3944 20.9352C74.5705 21.1537 75.2677 21.6403 75.5071 22.4159L75.5212 22.4089ZM74.4649 25.0672C74.4649 23.5441 74.3029 22.6486 73.979 22.3807C73.6268 22.0775 72.5071 21.9294 70.6128 21.9294C69.7975 21.9076 68.9817 21.9311 68.1691 21.9999C67.9307 22.0119 67.6999 22.0875 67.5005 22.219C67.3011 22.3504 67.1405 22.5328 67.0353 22.7473C66.7988 23.4965 66.7033 24.2831 66.7536 25.0672C66.7058 25.8402 66.8037 26.6152 67.0423 27.3518C67.1535 27.5652 67.3173 27.7466 67.5183 27.8786C67.7192 28.0107 67.9505 28.0891 68.1902 28.1063C68.9959 28.1746 69.8046 28.1981 70.6128 28.1768C71.9578 28.1768 72.7677 28.1768 73.0353 28.1204C73.274 28.102 73.5036 28.0231 73.7036 27.8911C73.9029 27.7591 74.0656 27.5784 74.1761 27.3659C74.4163 26.6248 74.5142 25.8448 74.4649 25.0672ZM83.7606 20.9211C85.324 20.9211 86.1057 21.8025 86.1057 23.5653C86.1451 24.2452 85.9374 24.9164 85.5212 25.455C85.2916 25.701 85.0099 25.8922 84.6966 26.0143C84.3832 26.1363 84.0466 26.1862 83.7113 26.1602H78.2677V29.1711H77.0635V20.9069L83.7606 20.9211ZM83.7113 25.0531C84.486 25.0531 84.8733 24.5525 84.8733 23.5582C84.8733 22.564 84.479 22.0422 83.6973 22.0422H78.2677V25.0531H83.7113ZM96.6761 26.3082C96.7444 27.0951 96.5353 27.881 96.0846 28.5294C95.6515 28.963 95.0698 29.2151 94.4578 29.2345C94.1621 29.2345 93.3592 29.2839 92.0423 29.2839C91.074 29.3217 90.105 29.2436 89.155 29.0512C88.8444 28.9813 88.555 28.8389 88.3106 28.6354C88.0656 28.4319 87.8726 28.1733 87.7466 27.8807C87.4423 26.9731 87.3135 26.016 87.3663 25.0602C87.3184 24.1046 87.4473 23.1483 87.7466 22.2396C87.874 21.9483 88.0677 21.6908 88.3128 21.4876C88.5571 21.2843 88.8451 21.1411 89.155 21.0691C90.105 20.8775 91.074 20.7994 92.0423 20.8364C93.3733 20.8364 94.155 20.8364 94.4578 20.8858C95.0691 20.908 95.6501 21.1597 96.0846 21.5909C96.536 22.2415 96.7451 23.0299 96.6761 23.8191H95.4437C95.4437 22.9166 95.2536 22.3736 94.8733 22.1903C93.9529 21.9634 93.0022 21.8824 92.0564 21.9505C91.2987 21.9246 90.5402 21.9623 89.7888 22.0634C89.5698 22.0992 89.3649 22.1934 89.1951 22.3361C89.0254 22.4787 88.8973 22.6647 88.824 22.8743C88.6522 23.599 88.5832 24.3444 88.6198 25.0884C88.5818 25.8235 88.6529 26.5601 88.8311 27.2743C88.9064 27.4849 89.0374 27.6713 89.2099 27.814C89.3818 27.9566 89.5895 28.0503 89.8099 28.0852C90.5543 28.1865 91.3057 28.2243 92.0564 28.198C93.0015 28.2639 93.9508 28.1878 94.8733 27.9723C95.2606 27.7819 95.4578 27.2319 95.4578 26.3294L96.6761 26.3082Z" fill="#231F20"/>
<defs>
<linearGradient id="paint0_linear_464:6852" x1="15.493" y1="56.4101" x2="23.8014" y2="46.3593" gradientUnits="userSpaceOnUse">
<stop stop-color="white"/>
<stop offset="0.1526" stop-color="white"/>
<stop offset="0.8478" stop-color="#9D9D9C"/>
<stop offset="1" stop-color="#9D9D9C"/>
</linearGradient>
</defs>
</svg>
