<svg width="204" height="133" viewBox="0 0 204 133" fill="none" xmlns="http://www.w3.org/2000/svg">
<g clip-path="url(#clip0_464:5654)">
<path d="M62.3951 105.433H61.541V37.7125L28.9495 30.7129V97.8342H28.082V29.5286L62.3951 36.914V105.433Z" fill="white"/>
<path fill-rule="evenodd" clip-rule="evenodd" d="M54.7071 103.782L60.3926 105.073L60.3392 87.1619V86.1771L60.2819 57.9453L54.7071 56.8052V86.8426L60.3392 88.1067V89.2511L54.7071 87.9896V103.782ZM53.8396 103.585V87.7953L35.4752 83.6818V99.4144L53.8396 103.585ZM34.6077 99.2048V83.4874L30.0566 82.468V98.1802L34.6077 99.2048ZM30.0566 81.3104L34.6077 82.3318V52.6942L30.0566 51.7635V81.3104ZM30.0566 50.8931L34.6077 51.8243V33.6538L30.0566 32.709V50.8931ZM35.4752 33.8268V52.0018L53.8396 55.7595V37.5842L35.4752 33.8268ZM54.7071 37.7657L60.2458 38.8968L60.2724 52.2838V53.2685L60.2802 57.0773L54.7071 55.9369V37.7657ZM35.4752 52.8717L53.8396 56.6277V86.6479L35.4752 82.5264V52.8717Z" fill="white"/>
<path d="M58.444 71.5659H56.8291V77.1815H58.444V71.5659Z" fill="#E62C25"/>
<path opacity="0.1" d="M35.1213 133.072L61.5673 105.2L28.5099 98.4729L0.174805 123.461L35.1213 133.072Z" fill="url(#paint0_linear_464:5654)"/>
<path d="M109.849 65.5209H85.4785V49.9249H87.7607V63.4051H96.4358V49.9249H98.7713V63.4051H107.446V49.9249H109.795L109.849 65.5209ZM127.666 65.5209H112.705V49.9249H127.666V52.0674H115.054V56.5918H127.225V58.721H115.054V63.445H127.666V65.5209ZM149.54 65.5209H147.205V51.9609L133.925 65.5209H130.389V49.9116H132.724V63.5781L146.137 49.9116H149.54V65.5209ZM143.321 49.7253H136.328V47.6228H143.321V49.7253ZM170.988 65.5209H168.652V52.0674H157.375V54.995C157.375 62.0345 156.467 65.5476 154.625 65.5476H152.356V63.4317H153.277C154.452 63.4317 155.039 61.1429 155.039 56.5652V49.9116H171.054L170.988 65.5209Z" fill="white"/>
<path d="M103.563 92.1885H101.227V89.3274H86.7197V92.1885H84.2773V87.2116H85.612C86.003 85.8704 86.2846 84.4996 86.4528 83.113C86.649 81.7329 86.7557 80.3416 86.7731 78.9479V73.7581H102.442V87.2116H103.536L103.563 92.1885ZM100.133 87.2116V75.8739H89.0953V78.9479C89.1167 81.7321 88.7884 84.508 88.121 87.2116H100.133ZM124.676 76.5659C125.157 79.871 125.157 83.2278 124.676 86.5329C124.236 87.9834 122.901 88.9149 120.672 89.3141C118.923 89.5213 117.161 89.6014 115.401 89.5537C113.618 89.6024 111.833 89.5224 110.062 89.3141C107.82 88.9016 106.472 87.9834 106.058 86.5462C105.755 84.9055 105.639 83.2361 105.711 81.5694C105.642 79.8983 105.758 78.2246 106.058 76.5792C106.495 75.1154 107.829 74.1839 110.062 73.7847C111.833 73.5642 113.618 73.4797 115.401 73.5318C117.161 73.4858 118.923 73.5659 120.672 73.7714C122.905 74.1794 124.24 75.111 124.676 76.5659ZM122.701 81.5694C122.701 78.695 122.394 77.005 121.78 76.4993C121.113 75.9271 118.977 75.6477 115.387 75.6477C113.842 75.6068 112.296 75.6513 110.756 75.7808C110.305 75.8062 109.869 75.9499 109.491 76.1977C109.115 76.4453 108.809 76.7882 108.607 77.1913C108.171 78.6076 107.995 80.0907 108.087 81.5694C107.99 83.0282 108.175 84.4921 108.634 85.8809C108.844 86.2817 109.152 86.6228 109.53 86.8719C109.909 87.121 110.344 87.27 110.796 87.3047C112.323 87.4332 113.855 87.4776 115.387 87.4378C117.95 87.4378 119.471 87.4378 119.978 87.3314C120.432 87.2988 120.871 87.1509 121.252 86.9017C121.633 86.6524 121.943 86.3102 122.154 85.9075C122.609 84.5086 122.794 83.0369 122.701 81.5694ZM140.318 73.7448C143.264 73.7448 144.74 75.4082 144.749 78.7349C144.828 80.0164 144.439 81.283 143.655 82.3013C143.217 82.7658 142.68 83.1266 142.085 83.3569C141.489 83.5871 140.848 83.6812 140.211 83.632H129.895V89.3274H127.559V73.7315L140.318 73.7448ZM140.211 81.5428C141.679 81.5428 142.413 80.5979 142.413 78.7216C142.413 76.8453 141.679 75.8606 140.198 75.8606H129.895V81.5428H140.211ZM164.782 83.9114C164.908 85.3942 164.517 86.8751 163.674 88.1032C162.853 88.9213 161.751 89.3972 160.591 89.4339C160.03 89.5004 158.509 89.527 156.013 89.527C154.174 89.5988 152.332 89.4515 150.528 89.0879C149.941 88.954 149.393 88.6844 148.929 88.3007C148.466 87.917 148.099 87.43 147.859 86.8789C147.282 85.1662 147.038 83.3598 147.138 81.5561C147.039 79.7304 147.283 77.9024 147.859 76.1667C148.103 75.6179 148.47 75.133 148.933 74.7497C149.396 74.3665 149.942 74.0954 150.528 73.9577C152.332 73.5956 154.174 73.4481 156.013 73.5185C158.536 73.5185 160.017 73.5185 160.591 73.6117C161.749 73.6536 162.85 74.1287 163.674 74.9424C164.519 76.1746 164.91 77.6603 164.782 79.1475H162.499C162.499 77.4441 162.139 76.4195 161.418 76.0735C159.674 75.6445 157.872 75.4919 156.08 75.6211C154.644 75.5716 153.206 75.6428 151.782 75.834C151.366 75.902 150.976 76.0798 150.652 76.3488C150.329 76.6179 150.082 76.9686 149.941 77.3643C149.622 78.7329 149.495 80.1394 149.567 81.5428C149.495 82.93 149.63 84.3202 149.967 85.668C150.11 86.0655 150.358 86.4172 150.684 86.6865C151.011 86.9557 151.403 87.1324 151.822 87.1983C153.233 87.39 154.657 87.4612 156.08 87.4112C157.871 87.5356 159.67 87.392 161.418 86.9854C162.152 86.6261 162.513 85.5881 162.513 83.8848L164.782 83.9114Z" fill="white"/>
</g>
<defs>
<linearGradient id="paint0_linear_464:5654" x1="29.5365" y1="131.741" x2="45.1359" y2="116.698" gradientUnits="userSpaceOnUse">
<stop stop-color="white" stop-opacity="0"/>
<stop offset="0.1526" stop-color="white" stop-opacity="0.17"/>
<stop offset="0.8478" stop-color="white"/>
<stop offset="1" stop-color="white"/>
</linearGradient>
<clipPath id="clip0_464:5654">
<rect width="204" height="133" fill="white"/>
</clipPath>
</defs>
</svg>
