<?xml version="1.0" encoding="utf-8"?>
<!-- Generator: Adobe Illustrator 23.0.2, SVG Export Plug-In . SVG Version: 6.00 Build 0)  -->
<svg version="1.1" id="Слой_1" xmlns="http://www.w3.org/2000/svg" xmlns:xlink="http://www.w3.org/1999/xlink" x="0px" y="0px"
	 width="45px" height="91px" viewBox="0 0 45 91" enable-background="new 0 0 45 91" xml:space="preserve">
<path fill="none" stroke="#FFFFFF" d="M10.7,27.2h-2v-7.3 M10.7,27.2l4.8-3 M10.7,27.2h9.4 M36.9,11V7h-6.6 M36.9,11l-6.5,4
	 M36.9,11l-6.6-4 M36.9,11v8.1 M15.5,24.2l7.6-4.7 M15.5,24.2l-6.8-4.4 M15.5,24.2l4.6,3 M23.1,19.6l7.3-4.5 M23.1,19.6l6.4,3.8
	 M23.1,19.6l-6.9-4.1 M30.3,15.1L23.7,11 M30.3,15.1l6.5,4.1 M30.3,7L23.7,11 M30.3,7H17.4 M8.7,19.9l7.4-4.4 M8.7,19.9V11 M23.7,11
	l-7.5,4.5 M23.7,11L17.4,7 M16.1,15.5L8.7,11 M20.1,27.2h2.5 M35.9,27.2h1v-8.1 M35.9,27.2l-6.5-3.9 M35.9,27.2H22.6 M8.7,11V7h7.7
	 M8.7,11l7.7-4 M29.4,23.4l7.5-4.2 M29.4,23.4l-6.8,3.9 M17.4,7h-0.9 M10.7,54.4h-2v-7.3 M10.7,54.4l4.8-3 M10.7,54.4h9.4
	 M36.9,38.2v-4h-6.6 M36.9,38.2l-6.5,4 M36.9,38.2l-6.6-4 M36.9,38.2v8.1 M15.5,51.4l7.6-4.7 M15.5,51.4l-6.8-4.4 M15.5,51.4l4.6,3
	 M23.1,46.8l7.3-4.5 M23.1,46.8l6.4,3.8 M23.1,46.8l-6.9-4.1 M30.3,42.3l-6.6-4.1 M30.3,42.3l6.5,4.1 M30.3,34.2l-6.6,3.9
	 M30.3,34.2H17.4 M8.7,47.1l7.4-4.4 M8.7,47.1v-8.8 M23.7,38.2l-7.5,4.5 M23.7,38.2l-6.3-3.9 M16.1,42.6l-7.4-4.4 M20.1,54.4h2.5
	 M35.9,54.4h1v-8.1 M35.9,54.4l-6.5-3.9 M35.9,54.4H22.6 M8.7,38.2v-4h7.7 M8.7,38.2l7.7-4 M29.4,50.6l7.5-4.2 M29.4,50.6l-6.8,3.9
	 M17.4,34.2h-0.9 M10.7,82.4h-2v-7.3 M10.7,82.4l4.8-3 M10.7,82.4h9.4 M36.9,66.2v-4h-6.6 M36.9,66.2l-6.5,4 M36.9,66.2l-6.6-4
	 M36.9,66.2v8.1 M15.5,79.4l7.6-4.7 M15.5,79.4l-6.8-4.4 M15.5,79.4l4.6,3 M23.1,74.8l7.3-4.5 M23.1,74.8l6.4,3.8 M23.1,74.8
	l-6.9-4.1 M30.3,70.3l-6.6-4.1 M30.3,70.3l6.5,4.1 M30.3,62.2l-6.6,3.9 M30.3,62.2H17.4 M8.7,75.1l7.4-4.4 M8.7,75.1v-8.8
	 M23.7,66.1l-7.5,4.5 M23.7,66.1l-6.3-3.9 M16.1,70.6l-7.4-4.4 M20.1,82.4h2.5 M35.9,82.4h1v-8.1 M35.9,82.4l-6.5-3.9 M35.9,82.4
	H22.6 M8.7,66.2v-4h7.7 M8.7,66.2l7.7-4 M29.4,78.6l7.5-4.2 M29.4,78.6l-6.8,3.9 M17.4,62.2h-0.9 M1.4,1v89h43V1H1.4z"/>
</svg>
