<?xml version="1.0" encoding="utf-8"?>
<!-- Generator: Adobe Illustrator 23.0.2, SVG Export Plug-In . SVG Version: 6.00 Build 0)  -->
<svg version="1.1" id="Слой_1" xmlns="http://www.w3.org/2000/svg" xmlns:xlink="http://www.w3.org/1999/xlink" x="0px" y="0px"
	 width="45px" height="91px" viewBox="0 0 45 91" enable-background="new 0 0 45 91" xml:space="preserve">
<path fill="none" stroke="#FFFFFF" d="M17.1,7H8.3v3.3 M17.1,7l-6,6.2 M17.1,7h11.6 M17.1,7l5.7,5.9 M8.3,16.1l2.9-3 M8.3,16.1v5.7
	 M8.3,16.1v-5.9 M11.2,13.2l5.7,5.7 M11.2,13.2l-2.9-2.9 M28.8,7h8.4v3.3 M28.8,7l-5.9,5.9 M28.8,7l5.6,6.1 M8.3,27.5l2.8-2.8
	 M8.3,27.5v5.9 M8.3,27.5v-5.7 M11.1,24.6l5.7-5.7 M11.1,24.6l5.9,5.9 M11.1,24.6l-2.8-2.8 M16.9,18.9l6-6 M16.9,18.9l5.9,5.9
	 M22.9,12.9l5.8,5.9 M37.1,10.3l-2.8,2.8 M37.1,10.3v5.9 M8.3,39.3l3-3 M8.3,39.3v-5.9 M8.3,39.3V45 M11.3,36.3l5.7-5.7 M11.3,36.3
	l5.9,5.7 M11.3,36.3l-3-2.9 M17,30.5l5.7-5.8 M17,30.5l5.8,5.8 M22.7,24.8l6-6 M22.7,24.8l5.8,5.8 M28.7,18.8l5.7-5.7 M28.7,18.8
	l5.7,5.9 M34.3,13.1l2.8,3.1 M8.3,50.8v2.4h9.6 M8.3,50.8l3.1-3.1 M8.3,50.8V45 M11.4,47.7l5.7-5.7 M11.4,47.7l6.5,5.5 M11.4,47.7
	L8.3,45 M17.1,41.9l5.6-5.6 M17.1,41.9l6.1,5.9 M22.7,36.3l5.7-5.8 M22.7,36.3l6,6.1 M28.5,30.6l5.9-5.9 M28.5,30.6l6.1,6.1
	 M34.4,24.6l2.7-2.8 M34.4,24.6l2.7,2.8 M37.1,21.9v5.6 M37.1,21.9v-5.8 M17.9,53.2l5.4-5.3 M17.9,53.2h10.9 M23.3,47.9l5.5-5.5
	 M23.3,47.9l5.5,5.3 M28.8,42.4l5.8-5.7 M28.8,42.4l5.8,5.9 M34.5,36.7l2.6-2.6 M34.5,36.7l2.6,2.6 M37.1,34.1v5.2 M37.1,34.1v-6.6
	 M29.4,53.2h7.7v-2.4 M29.4,53.2l5.1-4.9 M29.4,53.2h-0.7 M34.6,48.2l2.5-2.4 M34.6,48.2l2.5,2.6 M37.1,45.8v5 M37.1,45.8v-6.5
	 M8.3,58.1v25.6h28.8V58.1H8.3z M1,1v89h43V1H1z"/>
</svg>
