<?xml version="1.0" encoding="utf-8"?>
<!-- Generator: Adobe Illustrator 23.0.2, SVG Export Plug-In . SVG Version: 6.00 Build 0)  -->
<svg version="1.1" id="Слой_1" xmlns="http://www.w3.org/2000/svg" xmlns:xlink="http://www.w3.org/1999/xlink" x="0px" y="0px"
	 width="45px" height="91px" viewBox="0 0 45 91" enable-background="new 0 0 45 91" xml:space="preserve">
<path fill="none" stroke="#FFFFFF" d="M9.5,27.2H7.4v-7.3 M9.5,27.2l5-3 M9.5,27.2h9.9 M36.9,11V7H30 M36.9,11l-6.9,4 M36.9,11L30,7
	 M36.9,11v8.1 M14.5,24.2l7.9-4.7 M14.5,24.2l-7.1-4.4 M14.5,24.2l4.8,3 M22.4,19.6l7.6-4.5 M22.4,19.6l6.7,3.8 M22.4,19.6l-7.2-4.1
	 M30,15.1l-7-4.1 M30,15.1l6.9,4.1 M30,7L23.1,11 M30,7H16.4 M7.4,19.9l7.8-4.4 M7.4,19.9V11 M23.1,11l-7.9,4.5 M23.1,11L16.4,7
	 M15.2,15.5L7.4,11 M19.3,27.2H22 M35.8,27.2h1v-8.1 M35.8,27.2l-6.8-3.9 M35.8,27.2H22 M7.4,11V7h8.1 M7.4,11l8.1-4 M29.1,23.4
	l7.8-4.2 M29.1,23.4L22,27.2 M16.4,7h-0.9 M9.5,82.1H7.4v-7.3 M9.5,82.1l5-3 M9.5,82.1h9.9 M36.9,65.9v-4H30 M36.9,65.9L30,70
	 M36.9,65.9l-6.9-4 M36.9,65.9V74 M14.5,79.1l7.9-4.7 M14.5,79.1l-7.1-4.4 M14.5,79.1l4.8,3 M22.4,74.5L30,70 M22.4,74.5l6.7,3.8
	 M22.4,74.5l-7.2-4.1 M30,70l-7-4.1 M30,70l6.9,4.1 M30,61.9l-6.9,3.9 M30,61.9H16.4 M7.4,74.8l7.8-4.4 M7.4,74.8v-8.8 M23.1,65.9
	l-7.9,4.5 M23.1,65.9l-6.6-3.9 M15.2,70.4l-7.8-4.4 M19.3,82.1H22 M35.8,82.1h1V74 M35.8,82.1l-6.8-3.9 M35.8,82.1H22 M7.4,65.9v-4
	h8.1 M7.4,65.9l8.1-4 M29.1,78.3l7.8-4.2 M29.1,78.3L22,82.1 M16.4,61.9h-0.9 M7.5,34v20.9h29.3V34H7.5z M0.7,1v89h43V1H0.7z"/>
</svg>
