<?xml version="1.0" encoding="utf-8"?>
<!-- Generator: Adobe Illustrator 23.0.2, SVG Export Plug-In . SVG Version: 6.00 Build 0)  -->
<svg version="1.1" id="Слой_1" xmlns="http://www.w3.org/2000/svg" xmlns:xlink="http://www.w3.org/1999/xlink" x="0px" y="0px"
	 width="45px" height="91px" viewBox="0 0 45 91" enable-background="new 0 0 45 91" xml:space="preserve">
<path fill="none" stroke="#FFFFFF" d="M9.5,54.8H7.4v-7.3 M9.5,54.8l5-3 M9.5,54.8h9.9 M36.9,38.6v-4H30 M36.9,38.6l-6.9,4
	 M36.9,38.6l-6.9-4 M36.9,38.6v8.1 M14.5,51.8l7.9-4.7 M14.5,51.8l-7.1-4.4 M14.5,51.8l4.8,3 M22.4,47.1l7.6-4.5 M22.4,47.1l6.7,3.8
	 M22.4,47.1L15.2,43 M30,42.6l-7-4.1 M30,42.6l6.9,4.1 M30,34.6l-6.9,3.9 M30,34.6H16.4 M7.4,47.4l7.8-4.4 M7.4,47.4v-8.8
	 M23.1,38.5L15.2,43 M23.1,38.5l-6.6-3.9 M15.2,43l-7.8-4.4 M19.3,54.8H22 M35.8,54.8h1v-8.1 M35.8,54.8l-6.8-3.9 M35.8,54.8H22
	 M7.4,38.6v-4h8.1 M7.4,38.6l8.1-4 M29.1,50.9l7.8-4.2 M29.1,50.9L22,54.8 M16.4,34.6h-0.9 M7.5,7v20.9h29.3V7H7.5z M7.5,61.6v20.9
	h29.3V61.6H7.5z M0.7,1v89h43V1H0.7z"/>
</svg>
